<?xml version="1.0" encoding="UTF-8" standalone="no"?>
<!-- Created with Inkscape (http://www.inkscape.org/) -->

<svg
   xmlns:dc="http://purl.org/dc/elements/1.1/"
   xmlns:cc="http://creativecommons.org/ns#"
   xmlns:rdf="http://www.w3.org/1999/02/22-rdf-syntax-ns#"
   xmlns:svg="http://www.w3.org/2000/svg"
   xmlns="http://www.w3.org/2000/svg"
   version="1.1"
   width="15"
   height="200"
   id="svg3671">
  <defs
     id="defs3673" />
  <metadata
     id="metadata3676">
    <rdf:RDF>
      <cc:Work
         rdf:about="">
        <dc:format>image/svg+xml</dc:format>
        <dc:type
           rdf:resource="http://purl.org/dc/dcmitype/StillImage" />
        <dc:title></dc:title>
      </cc:Work>
    </rdf:RDF>
  </metadata>
  <g
     transform="translate(0,-852.3622)"
     id="layer1">
    <path
       d="m 13.634012,852.98113 -0.16217,0.60867 c -0.41955,-0.012 -0.69356,1.16341 -0.8344,1.64721 -0.15466,0.52468 -0.2097,0.88663 -0.39832,1.36563 -0.20303,0.51771 -0.20518,1.04485 -0.34985,1.5891 -0.60912,2.3138 -1.48177,4.50004 -2.0667799,6.77478 -0.36361,1.42362 -0.49135,3.04717 -0.90966,4.42072 -0.21555,0.70451 -0.30007,1.44184 -0.47016,2.17975 -0.13107,0.57758 -0.60757,1.73741 -0.39673,2.34859 0.22112,0.003 0.65805,-0.42599 0.85639,-0.23844 0.2918,0.27352 0.21684,1.09453 0.20273,1.46306 -0.0333,0.82106 -0.0498,2.26053 0.42847,2.958 0.35961,0.5242 0.9705099,0.71578 1.3831899,1.21798 0.33146,0.40685 0.85444,0.97515 1.08814,1.53314 0.62776,1.49607 -0.53771,3.6021 -0.76734,5.05097 -0.2476,1.56791 -0.50167,3.16734 -0.71419,4.74764 -0.22677,1.70411 -0.5458799,3.46741 -0.8689299,5.10291 -0.30819,1.56094 -0.34991,3.29832 -0.75474,4.83629 -0.6697,2.5512 -1.30847,5.25848 -1.72254,7.97271 -0.13166,0.85708 -0.25033,1.71709 -0.42235,2.56034 -0.15067,0.74663 -0.57703,1.87325 -0.59323,2.5908 0.67264,0.15584 0.96744,-1.09013 1.61913,-0.93938 -0.24037,1.48284 -0.77098,2.62304 -1.02305,4.07982 -0.1338,0.78202 -0.30171,1.53601 -0.43819,2.30706 -0.10058,0.56684 -0.118,1.59271 -0.33295,2.05965 0.21387,0.47537 0.58996,0.50007 0.88287,0.80703 0.36025,0.37731 0.60086,1.12712 0.64088,1.81785 0.0365,0.63311 -0.0992,1.63999 -0.1822,2.23574 -0.11612,0.83583 -0.34978,1.88341 -0.2903,2.73227 0.11301,1.60938 1.0798,1.16026 1.73785,1.67627 0.87017,0.68319 0.0194,3.56304 -0.10471,4.54573 -0.22766,1.80688 -0.67649,3.59033 -1.0632,5.31983 -0.32908,1.47149 -0.53427,3.04609 -0.75561,4.53337 -0.3863,2.59147 -0.87907,5.13539 -1.44044,7.65298 -0.40698,1.82558 -0.87024,3.84672 -0.98366,5.746 0.71827,-0.18953 0.88061,0.73732 1.07908,1.64862 0.34249,1.57258 0.0411,2.91438 -0.19262,4.40783 -0.16201,1.03475 -0.23623,2.08955 -0.42412,3.11431 -0.14911,0.81176 -0.34225,1.60415 -0.21639,2.50379 0.0707,0.50507 0.29337,0.9089 0.31492,1.43773 0.0329,0.80726 -0.25904,1.7804 -0.32802,2.57262 -0.15519,1.78051 -0.62543,3.56812 -0.97101,5.2431 -0.28996,1.40446 -0.3715,2.89153 -0.68814,4.28392 -0.24815,1.09047 -0.50377,2.42374 -0.66092,3.55514 -0.0663,0.47934 -0.12935,1.07251 0.17697,1.51645 0.2958,0.42792 0.7043,0.10442 0.99778,0.44548 0.21429,0.24877 0.28563,1.03807 0.31029,1.39092 0.0637,0.91963 -0.14749,1.79962 -0.29912,2.6196 -0.25909,1.40173 -0.39042,2.8584 -0.66084,4.258 -0.25861,1.33968 -0.56026,2.66932 -0.76671,3.99479 -0.0638,0.4093 0.0334,1.0526 -1.6e-4,1.5079 -0.0531,0.7129 -0.10185,1.424 -0.17855,2.1173 -0.11415,1.0296 -0.24667,1.9838 -0.31259,3.0291 -0.0718,1.1404 -0.32313,2.2156 -0.32343,3.353 0,1.4043 -0.1098,2.6647 -0.34654001,3.9996 -0.17947,1.012 -0.31062,2.0223 -0.42853,3.058 -0.11622,1.0217 -0.52576,2.3733 -0.48163,3.3879 0.82876,-0.1547 1.20198001,-1.9557 2.12345001,-2.0554 -0.18947,1.3305 -0.4995,2.7294 -0.20197,4.139 0.15082,0.7135 0.35247,0.7889 0.5696,1.3171 0.83077,2.0219 0.42556,3.9961 0.53677,6.0579 0.0383,0.7083 0.20614,1.3483 0.1707,2.0747 -0.0985,2.0212 -0.82092,4.0359 -1.18134,5.9151 -0.58585,3.053 -1.04624001,6.1362 -1.54571001,9.2387 -0.12659,0.7854 -0.67555,3.2689 -0.44198,3.9448 0.4028,-1.0742 0.81091,-2.0313 1.30784001,-2.9991 0.3043,-0.5915 0.79951,-1.225 1.02944,-1.8875 0.0176,0.076 0.0312,0.149 0.0462,0.2231 -0.22996,-1.2425 0.23277,-3.4573 0.39232,-4.4949 0.16687,-1.0885 0.52456,-2.0924 0.71248,-3.1874 0.44529,-2.5973 0.75994,-5.2729 0.91839,-8.0261 0.084,-1.4596 0.28101,-2.9087 0.31862,-4.3661 0.0116,-0.4514 0.17996,-1.2524 0.0914,-1.6782 -0.12086,-0.5808 -0.16006,-0.2418 -0.43489,-0.4371 -0.507,-0.3605 -0.74191,-0.8696 -0.81494,-1.8635 -0.10197,-1.3829 0.15787,-3.2729 0.29235,-4.6002 -0.12763,0.5034 -0.34028,1.9442 -0.60001,2.1402 -0.14783,-0.5226 -0.006,-1.621 0.0141,-2.0413 0.0624,-1.272 0.22727,-2.4715 0.313,-3.7302 0.1204,-1.7754 0.45458,-3.3911 0.67843,-5.1036 -0.54651,1.0482 -0.76687,2.9113 -1.18049,4.1318 -0.23996,0.7077 -0.465,1.821 -0.87756,2.3205 -0.29052,-1.4728 0.12612,-3.2115 0.13129,-4.6871 0.003,-0.8532 0.0777,-1.5167 0.16931,-2.3175 0.16531,-1.4552 0.27534,-2.8931 0.451,-4.3244 0.15181,-1.2335 0.21426,-2.5682 0.45167,-3.7573 0.28397,-1.4227 0.1348,-3.32481 0.75316,-4.47604 0.12594,1.47765 -0.21753,2.80764 -0.12022,4.26934 0.68955,0.4405 1.10258,-7.44663 1.19214,-8.06694 0.19586,-1.36238 0.26738,-2.60212 0.40809,-3.96479 0.0794,-0.76881 0.1253,-1.55682 0.21864,-2.31778 0.0916,-0.752 0.49237,-1.70572 0.24987,-2.51722 -0.74076,0.17088 -0.99621,1.91344 -1.73948,1.97135 -0.19785,-2.54708 0.7594,-5.95213 1.22472,-8.25474 0.57676,-2.85399 0.93079,-5.867 1.46864,-8.7556 1.07373,-5.76601 1.42592,-11.83785 2.30282,-17.69637 0.31518,-2.10524 0.6819599,-4.21084 1.0428899,-6.28815 0.1786,-1.02748 0.20503,-2.09196 0.31564,-3.14611 0.10492,-0.99891 0.33347,-1.98909 0.38588,-3.00639 0.0342,-0.66552 -0.0407,-1.32571 -0.011,-1.99884 0.0309,-0.71098 0.19458,-1.37855 0.24814,-2.08241 0.10998,-1.42952 0.57365,-3.06042 0.37766,-4.54446 -0.24226,-0.0367 -0.40606,0.17127 -0.63943,0.21567 -0.41996,-1.3943 -0.0798,-4.02576 0.15071,-5.36781 0.13447,-0.7901 0.16323,-1.60031 0.28256,-2.39189 -0.31691,1.29264 -0.84339,2.39229 -1.25642,3.58882 -0.1628,0.4747 -0.30467,1.15183 -0.4912799,1.51643 -0.85464,-1.10361 0.3062899,-5.95477 -0.2516,-6.3939 -0.22481,0.49053 -0.42961,1.03901 -0.70206,1.46898 -0.0569,-0.76294 0.28283,-2.41905 0.33974,-2.95224 0.14131,-1.30854 0.29463,-2.58048 0.51466,-3.85015 -0.78357,0.67738 -1.09115,2.14672 -1.81387,2.93536 -0.0603,-1.06707 0.55486,-2.41853 0.78666,-3.23923 0.28389,-1.01538 0.4711,-2.00705 0.6575,-3.08633 0.28327,-1.64715 0.9468999,-3.08505 1.0597799,-4.83136 -0.41594,-0.11084 -0.8377199,0.43217 -1.2443099,0.50743 0.23419,-3.38294 1.2440499,-6.33206 1.8042199,-9.53805 0.54372,-3.10934 1.25343,-6.06126 1.66619,-9.25955 0.27432,-2.1323 0.62694,-4.3119 1.01574,-6.3716 0.28899,-1.5407 0.35983,-3.44821 0.48332,-5.09746 -0.25173,0.21822 -0.40161,0.7237 -0.59767,1.05208 -0.8789,-1.6982 0.19929,-4.46766 -0.30028,-6.30817 -0.31433,0.88933 -0.63405,3.25145 -1.39458,3.48175 -0.40972,-1.6557 -0.21997,-3.80229 -0.34244,-5.52116 -0.289,0.019 -0.46218,0.30363 -0.51946,0.85419 -0.27409,0.5364 -0.60753,0.95794 -0.9957999,1.26314 -0.0597,-0.56708 0.2890799,-1.20219 0.4275699,-1.6668 0.25355,-0.84998 0.42338,-1.73921 0.62525,-2.62767 0.33548,-1.4845 0.82252,-2.97957 1.01091,-4.55847 0.30257,-2.52183 0.71918,-5.22628 1.46794,-7.45547 0.32297,-0.95955 0.50655,-2.03087 0.79159,-3.03249 0.173,-0.60466 0.36382,-1.18791 0.55418,-1.773 l -1.23972,0.61896"
       id="path122"
       style="fill:#ffffff;fill-opacity:1;fill-rule:nonzero;stroke:none" />
  </g>
</svg>
