<?xml version="1.0" encoding="iso-8859-1"?>
<!-- Generator: Adobe Illustrator 19.0.0, SVG Export Plug-In . SVG Version: 6.00 Build 0)  -->
<svg version="1.1" id="Capa_1" xmlns="http://www.w3.org/2000/svg" xmlns:xlink="http://www.w3.org/1999/xlink" x="0px" y="0px"
	 viewBox="0 0 512 512" style="enable-background:new 0 0 512 512;" xml:space="preserve">
<polygon style="fill:#333333;" points="496,256 462.24,283.176 487.88,318.128 448.224,335.616 463.872,376.032 421.032,382.624 
	425.704,425.712 382.616,421.04 376.024,463.872 335.616,448.224 318.128,487.88 283.176,462.24 256,496 228.824,462.24 
	193.872,487.88 176.384,448.224 135.968,463.872 129.376,421.032 86.288,425.704 90.96,382.616 48.128,376.024 63.776,335.616 
	24.12,318.128 49.76,283.176 16,256 49.76,228.824 24.12,193.872 63.776,176.384 48.128,135.968 90.968,129.376 86.296,86.288 
	129.384,90.96 135.976,48.128 176.384,63.776 193.872,24.12 228.824,49.76 256,16 283.176,49.76 318.128,24.12 335.616,63.776 
	376.032,48.128 382.624,90.968 425.712,86.296 421.04,129.384 463.872,135.976 448.224,176.384 487.88,193.872 462.24,228.824 "/>
<g>
	<path style="fill:#5B6BFE;" d="M480,152l-24-24h-80v151.432c27.104-3.896,48-27.264,48-55.432v-24h16v24c0,39.696-32.304,72-72,72
		c-4.416,0-8-3.584-8-8V160h-72c-8.84,0-16,7.16-16,16v32c0,8.84,7.16,16,16,16c-8.84,0-16,7.16-16,16v32c0,8.84,7.16,16,16,16
		c-8.84,0-16,7.16-16,16v32c0,8.84,7.16,16,16,16c-8.84,0-16,7.16-16,16v32c0,8.84,7.16,16,16,16h80h144V152H480z"/>
	<path style="fill:#5B6BFE;" d="M32,152l24-24h80v151.432c-27.104-3.896-48-27.264-48-55.432v-24H72v24c0,39.696,32.304,72,72,72
		c4.416,0,8-3.584,8-8V160h72c8.84,0,16,7.16,16,16v32c0,8.84-7.16,16-16,16c8.84,0,16,7.16,16,16v32c0,8.84-7.16,16-16,16
		c8.84,0,16,7.16,16,16v32c0,8.84-7.16,16-16,16c8.84,0,16,7.16,16,16v32c0,8.84-7.16,16-16,16h-80H0V152H32z"/>
</g>
</svg>
