<?xml version="1.0" encoding="UTF-8" standalone="no"?>
<!-- Created with Inkscape (http://www.inkscape.org/) -->

<svg
   xmlns:dc="http://purl.org/dc/elements/1.1/"
   xmlns:cc="http://creativecommons.org/ns#"
   xmlns:rdf="http://www.w3.org/1999/02/22-rdf-syntax-ns#"
   xmlns:svg="http://www.w3.org/2000/svg"
   xmlns="http://www.w3.org/2000/svg"
   version="1.1"
   width="410"
   height="280"
   id="svg3387">
  <defs
     id="defs3389" />
  <metadata
     id="metadata3392">
    <rdf:RDF>
      <cc:Work
         rdf:about="">
        <dc:format>image/svg+xml</dc:format>
        <dc:type
           rdf:resource="http://purl.org/dc/dcmitype/StillImage" />
        <dc:title></dc:title>
      </cc:Work>
    </rdf:RDF>
  </metadata>
  <g
     transform="translate(0,-772.36218)"
     id="layer1">
    <path
       d="m 134.6375,1022.7484 53.6,-41.98622 -25.01375,-10.72125 179.5575,-116.13125 -18.7625,-11.61375 71.475,-40.19875 -49.1375,36.625 26.8,14.29375 -181.34625,115.23875 25.90625,9.82625 -83.07875,44.66747"
       id="path126"
       style="fill:#141411;fill-opacity:1;fill-rule:nonzero;stroke:none" />
    <path
       d="m 321.78125,828.88718 c -13.72875,8.0875 -27.37625,16.31125 -41.0625,24.47125 l -40.93375,24.68375 -21.48,13.1025 c 0.59125,1.3325 1.1775,2.66875 1.75875,4.0075 l 22.0375,-13.2925 40.805,-24.895 c 13.56,-8.3675 27.16,-16.67 40.675,-25.10875 27.075,-16.8075 54.075,-33.7475 80.8375,-51.06375 -27.725,15.73625 -55.225,31.85 -82.6375,48.095"
       id="path128"
       style="fill:#141411;fill-opacity:1;fill-rule:nonzero;stroke:none" />
    <path
       d="m 312.94375,918.04468 c 0.7125,0.85 1.425,1.7025 2.1375,2.55625 24.825,-15.445 49.5875,-31.0125 74.15,-46.90375 -25.5875,14.52375 -50.975,29.37375 -76.2875,44.3475"
       id="path130"
       style="fill:#141411;fill-opacity:1;fill-rule:nonzero;stroke:none" />
    <path
       d="m 322.96875,915.91468 c -1.0875,0.68375 -2.1875,1.3625 -3.2875,2.045 -23.98125,14.875 -47.8875,29.86875 -71.59,45.19875 24.555,-13.9225 48.9075,-28.18 73.19,-42.55875 0.9375,-0.55625 1.8875,-1.11625 2.825,-1.6725 -0.4,-0.99625 -0.775,-1.99875 -1.1375,-3.0125"
       id="path132"
       style="fill:#141411;fill-opacity:1;fill-rule:nonzero;stroke:none" />
    <path
       d="m 319.55625,958.86093 -30.8975,18.52125 c 0.2075,0.36 0.415,0.71875 0.6225,1.07875 l 30.725,-18.855 40.6375,-25.1625 -41.0875,24.4175"
       id="path136"
       style="fill:#141411;fill-opacity:1;fill-rule:nonzero;stroke:none" />
    <path
       d="m 259.22,980.49843 -48.44625,29.73247 -60.7225,37.5963 61.40125,-36.4788 48.67125,-29.17372 c -0.3,-0.56 -0.60375,-1.1175 -0.90375,-1.67625"
       id="path138"
       style="fill:#141411;fill-opacity:1;fill-rule:nonzero;stroke:none" />
    <path
       d="m 333.10625,909.64593 -0.1625,-1.19625 c -0.15,-1.09125 -0.8,-2.05375 -1.75,-2.605 -6.7,-3.87625 -14.15,-5.8425 -22.12125,-5.8425 -5.36875,0 -11.06625,0.89625 -17.01375,2.66875 8.77125,-14.2275 19.535,-25.7325 32.085,-34.26875 1.1125,-0.76375 1.7125,-2.09875 1.525,-3.44375 -0.0625,-0.46125 -0.175,-0.895 -0.3375,-1.29625 l 2.1125,-1.43375 c 1.1125,-0.7625 1.7125,-2.09625 1.525,-3.44 l -0.1625,-1.1975 c -0.1625,-1.15875 -0.875,-2.165 -1.925,-2.69625 -0.4,-0.205 -0.825,-0.32875 -1.2625,-0.3725 -0.125,-0.92125 -0.6125,-1.75625 -1.35,-2.32875 -1.6375,-1.2825 -3.6625,-1.9325 -6.025,-1.9325 -1.725,0 -3.65,0.35625 -5.8,1.07875 -0.3625,-0.6225 -0.925,-1.1275 -1.6125,-1.43125 -0.46375,-0.20625 -0.9575,-0.3075 -1.45,-0.3075 -0.705,0 -1.4075,0.21 -2.01,0.62 -15.7025,10.68625 -19.2375,11.5075 -19.7175,11.56125 -0.005,0 -0.0113,0 -0.015,0 -1.24375,0 -2.3975,0.64625 -3.0475,1.70625 l -16.7525,27.34375 c -1.1375,0.0662 -2.2,0.6775 -2.82375,1.67875 l -5.66125,9.09125 c -0.0362,0.0575 -0.225,0.115 -0.49625,0.175 l 8.2675,-29.17625 c 5.77875,-16.66125 10.53375,-27.5975 14.13375,-32.50375 0.59875,-0.8175 0.82375,-1.85125 0.61625,-2.84375 l -0.71625,-3.43875 c -0.23,-1.09875 -0.95875,-2.02 -1.96375,-2.49875 l -0.0175,-0.0813 c -0.29,-1.39875 -1.3875,-2.49 -2.78875,-2.7725 -0.23625,-0.0488 -0.4725,-0.0713 -0.70875,-0.0713 -1.15875,0 -2.26125,0.5625 -2.9375,1.53875 -0.71875,1.03625 -1.37625,2.025 -1.97375,2.96625 l -5.25125,-1 c -0.22125,-0.0425 -0.445,-0.0625 -0.6675,-0.0625 -0.71125,0 -1.41375,0.2125 -2.01,0.61875 l -2.52875,1.72 c -0.38125,0.26125 -0.70875,0.59125 -0.9625,0.975 -0.34875,-0.1075 -0.70375,-0.16 -1.0575,-0.16 -0.9,0 -1.78375,0.34125 -2.45625,0.9775 -2.63625,2.49625 -4.63625,6.3175 -6.11375,11.6825 -0.15625,0.565 -0.1675,1.145 -0.0513,1.69375 -0.715,0.3175 -1.32375,0.86625 -1.70875,1.5875 -4.8575,9.11375 -7.76,16.485 -8.87125,22.53875 -0.0838,0.45375 -0.0788,0.9225 0.015,1.375 l 0.24,1.1475 c 0.0813,0.39125 0.225,0.7575 0.4225,1.08875 -0.25875,0.0975 -0.51,0.2275 -0.745,0.38625 l -1.26625,0.86125 c -0.84625,0.5775 -1.405,1.48875 -1.53375,2.505 l -0.54625,4.3 c -0.05,0.3925 -0.035,0.79 0.0462,1.1775 l 0.02,0.0987 -0.89375,2.26 c -0.0412,-0.15 -0.0925,-0.3 -0.155,-0.44875 -5.8574,-14.02745 -11.5724,-24.6262 -16.98115,-31.50245 -0.70125,-0.8925 -1.74875,-1.36375 -2.81125,-1.36375 -0.69375,0 -1.39375,0.20125 -2.0075,0.62 L 210.4,857.66833 c -0.98875,-0.4025 -2.095,-0.61125 -3.305,-0.61125 -3.69625,0 -8.25875,1.935 -14.3575,6.08625 -0.81375,0.5525 -1.36125,1.41625 -1.5175,2.3875 -0.15625,0.97 0.095,1.9625 0.6925,2.7425 l 3.06625,3.99125 -0.36125,2.84125 c -0.17875,1.39375 0.4775,2.7625 1.675,3.4975 0.575,0.35125 1.2225,0.52625 1.8675,0.52625 0.3225,0 0.64375,-0.0438 0.95625,-0.13 1.9025,1.88875 7.2575,10.99375 17.545,54.3775 l 1.1675,5.6 -0.4525,0.88625 c -0.66,1.2925 -0.46625,2.83375 0.4425,3.91875 l -0.0875,0.695 c -0.0913,0.70625 0.0325,1.425 0.35375,2.06125 l 2.45875,4.8725 c 0.4625,0.91875 1.3,1.5925 2.29625,1.85 0.29375,0.0762 0.59375,0.11375 0.8925,0.11375 0.71125,0 1.4125,-0.21125 2.0125,-0.62 l 2.5275,-1.72125 c 0.4975,-0.3375 0.9,-0.79375 1.17375,-1.32875 l 0.0675,-0.13625 c 0.40875,0.0575 0.77375,0.0762 1.07125,0.0762 2.40625,0 5.115,-1.04625 8.27875,-3.2 l 2.52625,-1.72 c 1.19625,-0.81375 1.78375,-2.2675 1.48875,-3.68375 -0.235,-1.1275 -0.13625,-1.92625 0.3825,-2.61 0.15375,0.02 0.3075,0.03 0.46,0.03 0.71125,0 1.41375,-0.2125 2.01,-0.61875 l 2.5275,-1.72 c 0.69375,-0.4725 1.19875,-1.17375 1.4275,-1.98 l 2.9,-10.23375 -0.18,1.38 c -0.13625,0.475 -0.17375,0.9725 -0.10625,1.46375 1.04875,7.77875 12.51375,8.6775 21.04625,8.6775 0.4175,0 0.8425,-0.002 1.275,-0.006 1.04625,-0.0125 2.035,-0.48375 2.705,-1.2875 0.64875,-0.78 0.935,-1.7975 0.79,-2.7975 l 8.99625,-2.6 c 1.26,-0.36375 2.18375,-1.37375 2.47875,-2.58625 2.29,-1.09625 6.43,-2.525 13.89125,-4.19375 -1.3025,7.28375 -8.42625,19.2675 -30.98875,38.41 l -1.53375,1.045 -3.1125,0.14125 c -1.11,0.05 -2.135,0.61625 -2.77,1.52875 l -3.46125,4.975 c -0.485,0.695 -0.70625,1.54125 -0.62375,2.38625 0.0612,0.6375 0.155,1.26125 0.27875,1.85125 1.67,8.02125 6.72625,9.21875 9.59,9.21875 0.395,0 0.80125,-0.0213 1.215,-0.0675 2.27875,0.865 4.58875,1.3025 6.88125,1.3025 0.0775,0 0.1525,-10e-4 0.22875,-0.002 l 0.20875,1.5125 c 0.18,1.3025 1.0575,2.39875 2.29,2.85875 0.40625,0.1525 0.82875,0.225 1.24875,0.225 0.85125,0 1.69,-0.30375 2.3525,-0.88375 C 307.735,966.83208 308.58,963.31833 308.29,960.95333 l 3.52875,-3.0225 c 0.25,-0.20375 0.45,-0.43875 0.6375,-0.6975 12.8375,-18.76 19.6,-34.0675 20.675,-46.79875 0.025,-0.2625 0.0125,-0.5275 -0.025,-0.78875"
       id="path140"
       style="fill:#141411;fill-opacity:1;fill-rule:nonzero;stroke:none" />
    <path
       d="m 210.34,886.46718 -18.56375,11.3225 c -13.55875,8.37 -27.16125,16.66625 -40.6775,25.1075 -27.07625,16.80625 -54.07125,33.74875 -80.835,51.06875 27.72875,-15.73125 55.2275,-31.84125 82.6425,-48.09 13.7325,-8.08375 27.37625,-16.31375 41.06375,-24.47125 l 18.1275,-10.93375 c -0.58125,-1.3375 -1.1675,-2.67125 -1.7575,-4.00375"
       id="path142"
       style="fill:#141411;fill-opacity:1;fill-rule:nonzero;stroke:none" />
    <path
       d="M 207.56,925.09968 108.90375,985.23093 54.38625,1018.6884 0,1052.3622 l 54.99375,-32.6713 54.86375,-32.88747 97.68625,-58.96625 c 0.002,-0.9125 0.006,-1.825 0.0163,-2.7375"
       id="path144"
       style="fill:#141411;fill-opacity:1;fill-rule:nonzero;stroke:none" />
    <path
       d="m 322.84375,919.91968 -0.175,-1.19625 c -0.15,-1.0925 -0.7875,-2.05375 -1.75,-2.60625 -6.7,-3.87625 -14.1425,-5.8425 -22.11875,-5.8425 -5.37,0 -11.06625,0.89625 -17.015,2.66875 8.77125,-14.22625 19.5375,-25.73125 32.08375,-34.2675 1.125,-0.765 1.7125,-2.09875 1.525,-3.445 -0.0625,-0.46 -0.175,-0.89375 -0.3375,-1.295 l 2.1125,-1.43375 c 1.1125,-0.76375 1.7125,-2.09625 1.525,-3.44125 l -0.1625,-1.1975 c -0.1625,-1.1575 -0.875,-2.165 -1.925,-2.69625 -0.4,-0.20375 -0.825,-0.3275 -1.2625,-0.37125 -0.125,-0.92125 -0.6125,-1.7575 -1.3375,-2.33 -1.65,-1.28125 -3.6775,-1.93125 -6.03875,-1.93125 -1.72,0 -3.645,0.35625 -5.79375,1.0775 -0.37125,-0.62125 -0.93125,-1.1275 -1.61625,-1.43 -0.46375,-0.20625 -0.95625,-0.3075 -1.44875,-0.3075 -0.70625,0 -1.40875,0.21 -2.01125,0.61875 -15.7025,10.6875 -19.2375,11.50875 -19.7175,11.56125 -0.004,0 -0.009,0 -0.015,0 -1.2425,0 -2.3975,0.64625 -3.0475,1.70625 l -16.7525,27.345 c -1.1375,0.0662 -2.2,0.67625 -2.82375,1.6775 l -5.66125,9.09125 c -0.035,0.0575 -0.225,0.11625 -0.49625,0.175 l 8.27,-29.175 c 5.77875,-16.6625 10.53125,-27.59875 14.13125,-32.505 0.6,-0.8175 0.82375,-1.85125 0.61625,-2.8425 l -0.71625,-3.44 c -0.2275,-1.0975 -0.9575,-2.02 -1.96375,-2.4975 l -0.0163,-0.0825 c -0.29125,-1.3975 -1.3875,-2.48875 -2.7875,-2.7725 -0.23875,-0.0475 -0.475,-0.0712 -0.71125,-0.0712 -1.1575,0 -2.26125,0.56375 -2.93625,1.53875 -0.71875,1.0375 -1.37625,2.02625 -1.97375,2.9675 l -5.2525,-1.00125 c -0.22,-0.0412 -0.445,-0.0625 -0.6675,-0.0625 -0.71125,0 -1.41375,0.2125 -2.01,0.61875 l -2.52875,1.72125 c -0.38125,0.26 -0.70875,0.59125 -0.9625,0.97375 -0.3475,-0.1075 -0.70375,-0.15875 -1.0575,-0.15875 -0.9,0 -1.78375,0.34125 -2.45625,0.9775 -2.63625,2.49625 -4.63625,6.3175 -6.11375,11.6825 -0.155,0.565 -0.1675,1.145 -0.05,1.69375 -0.71625,0.3175 -1.325,0.86625 -1.70875,1.5875 -4.85875,9.11375 -7.76,16.485 -8.8725,22.5375 -0.0838,0.455 -0.0787,0.9225 0.0163,1.37625 l 0.23875,1.1475 c 0.0813,0.39125 0.22625,0.7575 0.4225,1.08875 -0.25875,0.0975 -0.50875,0.22625 -0.74375,0.38625 l -1.26625,0.86125 c -0.84625,0.5775 -1.40625,1.48875 -1.53375,2.505 l -0.5475,4.3 c -0.05,0.3925 -0.0337,0.78875 0.0475,1.17625 l 0.0188,0.1 -0.89375,2.26 c -0.0412,-0.15 -0.0925,-0.30125 -0.155,-0.44875 -5.8575,-14.0275 -11.5725,-24.62625 -16.98125,-31.5025 -0.70125,-0.8925 -1.74875,-1.36375 -2.81125,-1.36375 -0.6925,0 -1.39375,0.20125 -2.0075,0.61875 l -2.4925,1.6975 c -0.9875,-0.4025 -2.09625,-0.61125 -3.30625,-0.61125 -3.69625,0 -8.25625,1.93375 -14.3575,6.08625 -0.8125,0.5525 -1.36125,1.41625 -1.5175,2.38625 -0.15625,0.97125 0.095,1.9625 0.69375,2.7425 l 3.065,3.9925 -0.36125,2.84125 c -0.17875,1.39375 0.47875,2.76125 1.6775,3.49625 0.57375,0.3525 1.22,0.5275 1.8675,0.5275 0.32125,0 0.64125,-0.0438 0.95375,-0.13 1.9025,1.8875 7.2575,10.99375 17.54625,54.3775 l 1.16625,5.6 -0.4525,0.88625 c -0.66,1.2925 -0.46625,2.8325 0.4425,3.9175 l -0.0875,0.695 c -0.09,0.7075 0.0325,1.425 0.35375,2.06125 l 2.45875,4.8725 c 0.4625,0.91875 1.3,1.5925 2.29625,1.85 0.29375,0.0762 0.59375,0.11375 0.89375,0.11375 0.71,0 1.4125,-0.2125 2.01125,-0.61875 l 2.53,-1.72125 c 0.495,-0.3375 0.8975,-0.795 1.17125,-1.32875 l 0.07,-0.1375 c 0.40625,0.0587 0.77125,0.0775 1.06875,0.0775 2.40625,0 5.115,-1.0475 8.27875,-3.20125 l 2.5275,-1.72 c 1.19625,-0.8125 1.7825,-2.26625 1.4875,-3.6825 -0.23375,-1.1275 -0.13375,-1.9275 0.3825,-2.61 0.15375,0.02 0.3075,0.03 0.46,0.03 0.71125,0 1.41375,-0.2125 2.01,-0.62 l 2.52875,-1.72 c 0.69375,-0.47125 1.19875,-1.1725 1.42625,-1.97875 l 2.90125,-10.235 -0.18125,1.38125 c -0.135,0.47375 -0.17125,0.9725 -0.10625,1.4625 1.04875,7.78 12.51375,8.67875 21.04625,8.67875 0.4175,0 0.8425,-0.002 1.27625,-0.006 1.0475,-0.0125 2.035,-0.48375 2.70375,-1.2875 0.64875,-0.78 0.93625,-1.7975 0.79125,-2.79875 l 8.995,-2.6 c 1.26125,-0.365 2.18375,-1.3725 2.48,-2.585 2.28875,-1.09625 6.42875,-2.52625 13.89125,-4.195 -1.3025,7.285 -8.4275,19.26875 -30.98875,38.41125 l -1.53375,1.045 -3.1125,0.14125 c -1.11125,0.05 -2.135,0.615 -2.77,1.52875 l -3.4625,4.97375 c -0.48375,0.69625 -0.705,1.5425 -0.62375,2.3875 0.0625,0.63625 0.155,1.26 0.27875,1.85 1.67,8.0225 6.72625,9.22 9.59,9.22 0.395,0 0.80125,-0.0238 1.21625,-0.0675 2.2775,0.86375 4.5875,1.3 6.88125,1.3 0.0763,0 0.15125,0 0.2275,-10e-4 l 0.21,1.5125 c 0.18,1.30125 1.0575,2.4 2.28875,2.85875 0.40625,0.1525 0.82875,0.22625 1.24875,0.22625 0.8525,0 1.69125,-0.30375 2.35375,-0.88375 22.4475,-19.6275 23.29375,-23.1425 23.0025,-25.50625 l 3.535,-3.0225 c 0.23875,-0.20375 0.44875,-0.44 0.625,-0.6975 12.8425,-18.76125 19.605,-34.06875 20.68,-46.79875 0.025,-0.2625 0.0125,-0.5275 -0.0125,-0.78875"
       id="path146"
       style="fill:#141411;fill-opacity:1;fill-rule:nonzero;stroke:none" />
    <path
       d="m 308.51625,948.03093 -6.06625,6.74875 0.23875,1.145 1.2625,-0.86 4.565,-7.03375 z m -7.36875,16.79875 -0.23875,-1.14625 -1.26375,0.86 -9.87375,8.02875 0.16375,1.1975 5.05625,-3.44125 6.15625,-5.49875 z m -7.525,-14.51875 1.265,-0.86 2.19875,-4.115 -1.265,0.86 -2.19875,4.115 z m -16.62,-41.0575 19.68,-27.79625 9.7825,-9.27625 -0.32875,-2.395 -2.52875,1.72125 c -12.39875,13.57375 -21.3225,25.755 -26.77,36.55 l 0.165,1.19625 z m 35.14125,35.00125 1.2625,-0.86125 4.2375,-9.42875 -1.2625,0.86125 -4.2375,9.42875 z m -2.64125,10.96 -7.49375,6.41 0.1625,1.19875 2.53,-1.72125 c 0.33125,2.135 -6.925,9.69125 -21.76625,22.67 l -0.33125,-2.395 6.3225,-4.3025 -0.09,-1.2475 c -5.405,3.67875 -10.84375,4.325 -16.32125,1.9425 -4.13375,0.8125 -6.715,-1.25625 -7.74625,-6.2025 -0.0937,-0.44875 -0.1675,-0.9375 -0.22,-1.46875 l 3.46125,-4.97375 4.12375,-0.1875 2.5275,-1.72 c 23.09125,-19.5675 33.9275,-34.7975 32.50875,-45.69125 -10.92125,2.195 -17.9925,4.39 -21.21375,6.58125 l 0.16375,1.1975 -13.37375,3.865 1.42875,0.3375 0.40375,2.34375 c -11.9725,0.13875 -18.21875,-1.72 -18.7375,-5.57625 l 6.545,-22.785 5.6625,-9.09 0.3275,2.39375 19.2625,-31.43875 c 2.55,0.0125 9.795,-4.0475 21.74375,-12.18 l 0.165,1.1975 -8.85,6.0225 0.16625,1.1975 c 10.555,-7.18625 17.63,-9.38 21.2175,-6.58125 l 0.325,2.39375 -6.325,4.30125 0.1625,1.19875 9.0125,-4.82625 0.175,1.1975 -7.5875,5.16125 0.1625,1.1975 c 2.525,-1.72 3.9,-1.78125 4.125,-0.18625 -15.0225,10.2225 -27.3975,24.31875 -37.12625,42.28625 l 0.165,1.19625 c 17.135,-7.1425 31.87375,-7.14 44.23625,0.006 l 0.1625,1.19625 c -1.0125,11.98625 -7.7,27.01375 -20.06625,45.08125 z m -72.64125,-60.1725 2.8375,-7.1675 -0.23875,-1.1475 -2.8375,7.1675 0.23875,1.1475 z m 14.49125,-41.285 -0.23875,-1.14625 c -4.63875,8.7025 -7.47625,15.86875 -8.51,21.5025 l 0.24,1.14625 8.50875,-21.5025 z m 7.1775,-14.05 -0.23875,-1.1475 c -2.1275,2.01375 -3.8375,5.36125 -5.12625,10.03625 l 1.26375,-0.86 4.10125,-8.02875 z m 2.79625,20.35375 2.83625,-7.16625 -0.2375,-1.1475 -1.265,0.86 -2.5975,8.31375 1.26375,-0.86 z m -11.245,43.00375 -0.24,-1.14625 -3.075,6.02125 0.24,1.14625 3.075,-6.02125 z m -3.8625,9.17625 c -1.66,1.54125 -2.94875,4.59875 -3.8625,9.17375 l 1.5025,0.2875 1.26625,-0.86125 1.09375,-8.6 z m -25.86125,0.58 -2.6275,-12.61375 -1.26375,0.86 2.62875,12.61375 1.2625,-0.86 z m -4.6075,-15.19375 -1.19375,-5.73375 -1.26375,0.86 1.19375,5.73375 1.26375,-0.86 z m 47.96625,-26.1 -17.46875,61.64 -2.52625,1.72 -1.50375,-0.285 c -2.5275,1.72 -3.475,4.11 -2.8375,7.1675 l -2.52625,1.72 c -5.90125,4.01625 -9.4075,3.3475 -10.5225,-2.0025 l 0.54875,-4.3025 -2.0525,4.015 0.71875,3.44 1.50125,0.2875 0.23875,1.14625 -1.02375,2.00625 -2.53,1.72125 -2.45625,-4.8725 0.545,-4.30125 -1.26375,0.86125 1.02625,-2.0075 -1.435,-6.88 c -9.8,-41.33625 -17.12875,-60.35 -21.98875,-57.04375 l 0.5475,-4.3 -3.96,-5.16 c 10.11125,-6.8825 15.8075,-7.265 17.08,-1.15 l 1.265,-0.86 -0.7175,-3.44 2.52875,-1.72125 c 5.235,6.65375 10.7325,16.8775 16.4925,30.67 l -1.2625,0.86 1.5025,0.2875 2.14875,10.32 2.53,-1.72125 -1.02625,2.00625 1.195,5.735 1.26375,-0.86125 c 1.73875,-9.86 6.33,-24.7675 13.775,-44.725 l 1.5025,0.28625 1.81125,-5.16125 -1.2625,0.86 -2.05125,4.015 -0.2375,-1.14625 11.03875,-23.225 2.52625,-1.72 6.01375,1.145 -4.88875,11.1825 3.7925,-2.58125 c -0.49625,-2.38375 1.475,-6.78 5.9125,-13.18875 l 0.71625,3.44 c -3.29625,2.65625 -4.7425,4.9475 -4.33875,6.88 l 2.52625,-1.72 c -0.4775,-2.2925 0.55,-4.3 3.07625,-6.02 l 0.71625,3.44 c -3.83375,5.2275 -8.72125,16.40875 -14.66,33.54375 z m -22.99375,14.34 -1.2625,0.86 -0.24,-1.14625 0.5475,-4.3 1.265,-0.86125 0.7175,3.44 -1.0275,2.0075"
       id="path148"
       style="fill:#ff2a2a;fill-opacity:1;fill-rule:nonzero;stroke:none" />
  </g>
</svg>
